<?xml version="1.0" encoding="utf-8" standalone="no"?>
<!DOCTYPE svg PUBLIC "-//W3C//DTD SVG 1.1//EN"
  "http://www.w3.org/Graphics/SVG/1.1/DTD/svg11.dtd">
<svg xmlns:xlink="http://www.w3.org/1999/xlink" width="720pt" height="720pt" viewBox="0 0 720 720" xmlns="http://www.w3.org/2000/svg" version="1.1">
 <metadata>
  <rdf:RDF xmlns:dc="http://purl.org/dc/elements/1.1/" xmlns:cc="http://creativecommons.org/ns#" xmlns:rdf="http://www.w3.org/1999/02/22-rdf-syntax-ns#">
   <cc:Work>
    <dc:type rdf:resource="http://purl.org/dc/dcmitype/StillImage"/>
    <dc:date>2025-08-14T11:05:53.067762</dc:date>
    <dc:format>image/svg+xml</dc:format>
    <dc:creator>
     <cc:Agent>
      <dc:title>Matplotlib v3.8.4, https://matplotlib.org/</dc:title>
     </cc:Agent>
    </dc:creator>
   </cc:Work>
  </rdf:RDF>
 </metadata>
 <defs>
  <style type="text/css">*{stroke-linejoin: round; stroke-linecap: butt}</style>
 </defs>
 <g id="figure_1">
  <g id="patch_1">
   <path d="M 0 720 
L 720 720 
L 720 0 
L 0 0 
z
" style="fill: #ffffff"/>
  </g>
  <g id="axes_1">
   <g id="patch_2">
    <path d="M 179.045637 411.84 
L 709.2 411.84 
L 709.2 10.8 
L 179.045637 10.8 
z
" style="fill: #ffffff"/>
   </g>
   <g id="matplotlib.axis_1">
    <g id="xtick_1">
     <g id="line2d_1">
      <path d="M 324.260741 411.84 
L 324.260741 10.8 
" clip-path="url(#pc1a8db943a)" style="fill: none; stroke: #b0b0b0; stroke-width: 0.8; stroke-linecap: square"/>
     </g>
     <g id="line2d_2">
      <defs>
       <path id="m371f500585" d="M 0 0 
L 0 3.5 
" style="stroke: #000000; stroke-width: 0.8"/>
      </defs>
      <g>
       <use xlink:href="#m371f500585" x="324.260741" y="411.84" style="stroke: #000000; stroke-width: 0.8"/>
      </g>
     </g>
     <g id="text_1">
      <!-- 40000 -->
      <g transform="translate(266.998241 446.194375) scale(0.36 -0.36)">
       <defs>
        <path id="DejaVuSans-34" d="M 2419 4116 
L 825 1625 
L 2419 1625 
L 2419 4116 
z
M 2253 4666 
L 3047 4666 
L 3047 1625 
L 3713 1625 
L 3713 1100 
L 3047 1100 
L 3047 0 
L 2419 0 
L 2419 1100 
L 313 1100 
L 313 1709 
L 2253 4666 
z
" transform="scale(0.015625)"/>
        <path id="DejaVuSans-30" d="M 2034 4250 
Q 1547 4250 1301 3770 
Q 1056 3291 1056 2328 
Q 1056 1369 1301 889 
Q 1547 409 2034 409 
Q 2525 409 2770 889 
Q 3016 1369 3016 2328 
Q 3016 3291 2770 3770 
Q 2525 4250 2034 4250 
z
M 2034 4750 
Q 2819 4750 3233 4129 
Q 3647 3509 3647 2328 
Q 3647 1150 3233 529 
Q 2819 -91 2034 -91 
Q 1250 -91 836 529 
Q 422 1150 422 2328 
Q 422 3509 836 4129 
Q 1250 4750 2034 4750 
z
" transform="scale(0.015625)"/>
       </defs>
       <use xlink:href="#DejaVuSans-34"/>
       <use xlink:href="#DejaVuSans-30" x="63.623047"/>
       <use xlink:href="#DejaVuSans-30" x="127.246094"/>
       <use xlink:href="#DejaVuSans-30" x="190.869141"/>
       <use xlink:href="#DejaVuSans-30" x="254.492188"/>
      </g>
     </g>
    </g>
    <g id="xtick_2">
     <g id="line2d_3">
      <path d="M 520.370161 411.84 
L 520.370161 10.8 
" clip-path="url(#pc1a8db943a)" style="fill: none; stroke: #b0b0b0; stroke-width: 0.8; stroke-linecap: square"/>
     </g>
     <g id="line2d_4">
      <g>
       <use xlink:href="#m371f500585" x="520.370161" y="411.84" style="stroke: #000000; stroke-width: 0.8"/>
      </g>
     </g>
     <g id="text_2">
      <!-- 60000 -->
      <g transform="translate(463.107661 446.194375) scale(0.36 -0.36)">
       <defs>
        <path id="DejaVuSans-36" d="M 2113 2584 
Q 1688 2584 1439 2293 
Q 1191 2003 1191 1497 
Q 1191 994 1439 701 
Q 1688 409 2113 409 
Q 2538 409 2786 701 
Q 3034 994 3034 1497 
Q 3034 2003 2786 2293 
Q 2538 2584 2113 2584 
z
M 3366 4563 
L 3366 3988 
Q 3128 4100 2886 4159 
Q 2644 4219 2406 4219 
Q 1781 4219 1451 3797 
Q 1122 3375 1075 2522 
Q 1259 2794 1537 2939 
Q 1816 3084 2150 3084 
Q 2853 3084 3261 2657 
Q 3669 2231 3669 1497 
Q 3669 778 3244 343 
Q 2819 -91 2113 -91 
Q 1303 -91 875 529 
Q 447 1150 447 2328 
Q 447 3434 972 4092 
Q 1497 4750 2381 4750 
Q 2619 4750 2861 4703 
Q 3103 4656 3366 4563 
z
" transform="scale(0.015625)"/>
       </defs>
       <use xlink:href="#DejaVuSans-36"/>
       <use xlink:href="#DejaVuSans-30" x="63.623047"/>
       <use xlink:href="#DejaVuSans-30" x="127.246094"/>
       <use xlink:href="#DejaVuSans-30" x="190.869141"/>
       <use xlink:href="#DejaVuSans-30" x="254.492188"/>
      </g>
     </g>
    </g>
    <g id="text_3">
     <!-- Quadratures -->
     <g transform="translate(331.746569 485.035625) scale(0.36 -0.36)">
      <defs>
       <path id="DejaVuSans-51" d="M 2522 4238 
Q 1834 4238 1429 3725 
Q 1025 3213 1025 2328 
Q 1025 1447 1429 934 
Q 1834 422 2522 422 
Q 3209 422 3611 934 
Q 4013 1447 4013 2328 
Q 4013 3213 3611 3725 
Q 3209 4238 2522 4238 
z
M 3406 84 
L 4238 -825 
L 3475 -825 
L 2784 -78 
Q 2681 -84 2626 -87 
Q 2572 -91 2522 -91 
Q 1538 -91 948 567 
Q 359 1225 359 2328 
Q 359 3434 948 4092 
Q 1538 4750 2522 4750 
Q 3503 4750 4090 4092 
Q 4678 3434 4678 2328 
Q 4678 1516 4351 937 
Q 4025 359 3406 84 
z
" transform="scale(0.015625)"/>
       <path id="DejaVuSans-75" d="M 544 1381 
L 544 3500 
L 1119 3500 
L 1119 1403 
Q 1119 906 1312 657 
Q 1506 409 1894 409 
Q 2359 409 2629 706 
Q 2900 1003 2900 1516 
L 2900 3500 
L 3475 3500 
L 3475 0 
L 2900 0 
L 2900 538 
Q 2691 219 2414 64 
Q 2138 -91 1772 -91 
Q 1169 -91 856 284 
Q 544 659 544 1381 
z
M 1991 3584 
L 1991 3584 
z
" transform="scale(0.015625)"/>
       <path id="DejaVuSans-61" d="M 2194 1759 
Q 1497 1759 1228 1600 
Q 959 1441 959 1056 
Q 959 750 1161 570 
Q 1363 391 1709 391 
Q 2188 391 2477 730 
Q 2766 1069 2766 1631 
L 2766 1759 
L 2194 1759 
z
M 3341 1997 
L 3341 0 
L 2766 0 
L 2766 531 
Q 2569 213 2275 61 
Q 1981 -91 1556 -91 
Q 1019 -91 701 211 
Q 384 513 384 1019 
Q 384 1609 779 1909 
Q 1175 2209 1959 2209 
L 2766 2209 
L 2766 2266 
Q 2766 2663 2505 2880 
Q 2244 3097 1772 3097 
Q 1472 3097 1187 3025 
Q 903 2953 641 2809 
L 641 3341 
Q 956 3463 1253 3523 
Q 1550 3584 1831 3584 
Q 2591 3584 2966 3190 
Q 3341 2797 3341 1997 
z
" transform="scale(0.015625)"/>
       <path id="DejaVuSans-64" d="M 2906 2969 
L 2906 4863 
L 3481 4863 
L 3481 0 
L 2906 0 
L 2906 525 
Q 2725 213 2448 61 
Q 2172 -91 1784 -91 
Q 1150 -91 751 415 
Q 353 922 353 1747 
Q 353 2572 751 3078 
Q 1150 3584 1784 3584 
Q 2172 3584 2448 3432 
Q 2725 3281 2906 2969 
z
M 947 1747 
Q 947 1113 1208 752 
Q 1469 391 1925 391 
Q 2381 391 2643 752 
Q 2906 1113 2906 1747 
Q 2906 2381 2643 2742 
Q 2381 3103 1925 3103 
Q 1469 3103 1208 2742 
Q 947 2381 947 1747 
z
" transform="scale(0.015625)"/>
       <path id="DejaVuSans-72" d="M 2631 2963 
Q 2534 3019 2420 3045 
Q 2306 3072 2169 3072 
Q 1681 3072 1420 2755 
Q 1159 2438 1159 1844 
L 1159 0 
L 581 0 
L 581 3500 
L 1159 3500 
L 1159 2956 
Q 1341 3275 1631 3429 
Q 1922 3584 2338 3584 
Q 2397 3584 2469 3576 
Q 2541 3569 2628 3553 
L 2631 2963 
z
" transform="scale(0.015625)"/>
       <path id="DejaVuSans-74" d="M 1172 4494 
L 1172 3500 
L 2356 3500 
L 2356 3053 
L 1172 3053 
L 1172 1153 
Q 1172 725 1289 603 
Q 1406 481 1766 481 
L 2356 481 
L 2356 0 
L 1766 0 
Q 1100 0 847 248 
Q 594 497 594 1153 
L 594 3053 
L 172 3053 
L 172 3500 
L 594 3500 
L 594 4494 
L 1172 4494 
z
" transform="scale(0.015625)"/>
       <path id="DejaVuSans-65" d="M 3597 1894 
L 3597 1613 
L 953 1613 
Q 991 1019 1311 708 
Q 1631 397 2203 397 
Q 2534 397 2845 478 
Q 3156 559 3463 722 
L 3463 178 
Q 3153 47 2828 -22 
Q 2503 -91 2169 -91 
Q 1331 -91 842 396 
Q 353 884 353 1716 
Q 353 2575 817 3079 
Q 1281 3584 2069 3584 
Q 2775 3584 3186 3129 
Q 3597 2675 3597 1894 
z
M 3022 2063 
Q 3016 2534 2758 2815 
Q 2500 3097 2075 3097 
Q 1594 3097 1305 2825 
Q 1016 2553 972 2059 
L 3022 2063 
z
" transform="scale(0.015625)"/>
       <path id="DejaVuSans-73" d="M 2834 3397 
L 2834 2853 
Q 2591 2978 2328 3040 
Q 2066 3103 1784 3103 
Q 1356 3103 1142 2972 
Q 928 2841 928 2578 
Q 928 2378 1081 2264 
Q 1234 2150 1697 2047 
L 1894 2003 
Q 2506 1872 2764 1633 
Q 3022 1394 3022 966 
Q 3022 478 2636 193 
Q 2250 -91 1575 -91 
Q 1294 -91 989 -36 
Q 684 19 347 128 
L 347 722 
Q 666 556 975 473 
Q 1284 391 1588 391 
Q 1994 391 2212 530 
Q 2431 669 2431 922 
Q 2431 1156 2273 1281 
Q 2116 1406 1581 1522 
L 1381 1569 
Q 847 1681 609 1914 
Q 372 2147 372 2553 
Q 372 3047 722 3315 
Q 1072 3584 1716 3584 
Q 2034 3584 2315 3537 
Q 2597 3491 2834 3397 
z
" transform="scale(0.015625)"/>
      </defs>
      <use xlink:href="#DejaVuSans-51"/>
      <use xlink:href="#DejaVuSans-75" x="78.710938"/>
      <use xlink:href="#DejaVuSans-61" x="142.089844"/>
      <use xlink:href="#DejaVuSans-64" x="203.369141"/>
      <use xlink:href="#DejaVuSans-72" x="266.845703"/>
      <use xlink:href="#DejaVuSans-61" x="307.958984"/>
      <use xlink:href="#DejaVuSans-74" x="369.238281"/>
      <use xlink:href="#DejaVuSans-75" x="408.447266"/>
      <use xlink:href="#DejaVuSans-72" x="471.826172"/>
      <use xlink:href="#DejaVuSans-65" x="510.689453"/>
      <use xlink:href="#DejaVuSans-73" x="572.212891"/>
     </g>
    </g>
   </g>
   <g id="matplotlib.axis_2">
    <g id="ytick_1">
     <g id="line2d_5">
      <path d="M 179.045637 322.653635 
L 709.2 322.653635 
" clip-path="url(#pc1a8db943a)" style="fill: none; stroke: #b0b0b0; stroke-width: 0.8; stroke-linecap: square"/>
     </g>
     <g id="line2d_6">
      <defs>
       <path id="m72bafab393" d="M 0 0 
L -3.5 0 
" style="stroke: #000000; stroke-width: 0.8"/>
      </defs>
      <g>
       <use xlink:href="#m72bafab393" x="179.045637" y="322.653635" style="stroke: #000000; stroke-width: 0.8"/>
      </g>
     </g>
     <g id="text_4">
      <!-- $\mathdefault{10^{-3}}$ -->
      <g transform="translate(87.445638 336.330822) scale(0.36 -0.36)">
       <defs>
        <path id="DejaVuSans-31" d="M 794 531 
L 1825 531 
L 1825 4091 
L 703 3866 
L 703 4441 
L 1819 4666 
L 2450 4666 
L 2450 531 
L 3481 531 
L 3481 0 
L 794 0 
L 794 531 
z
" transform="scale(0.015625)"/>
        <path id="DejaVuSans-2212" d="M 678 2272 
L 4684 2272 
L 4684 1741 
L 678 1741 
L 678 2272 
z
" transform="scale(0.015625)"/>
        <path id="DejaVuSans-33" d="M 2597 2516 
Q 3050 2419 3304 2112 
Q 3559 1806 3559 1356 
Q 3559 666 3084 287 
Q 2609 -91 1734 -91 
Q 1441 -91 1130 -33 
Q 819 25 488 141 
L 488 750 
Q 750 597 1062 519 
Q 1375 441 1716 441 
Q 2309 441 2620 675 
Q 2931 909 2931 1356 
Q 2931 1769 2642 2001 
Q 2353 2234 1838 2234 
L 1294 2234 
L 1294 2753 
L 1863 2753 
Q 2328 2753 2575 2939 
Q 2822 3125 2822 3475 
Q 2822 3834 2567 4026 
Q 2313 4219 1838 4219 
Q 1578 4219 1281 4162 
Q 984 4106 628 3988 
L 628 4550 
Q 988 4650 1302 4700 
Q 1616 4750 1894 4750 
Q 2613 4750 3031 4423 
Q 3450 4097 3450 3541 
Q 3450 3153 3228 2886 
Q 3006 2619 2597 2516 
z
" transform="scale(0.015625)"/>
       </defs>
       <use xlink:href="#DejaVuSans-31" transform="translate(0 0.765625)"/>
       <use xlink:href="#DejaVuSans-30" transform="translate(63.623047 0.765625)"/>
       <use xlink:href="#DejaVuSans-2212" transform="translate(128.203125 39.046875) scale(0.7)"/>
       <use xlink:href="#DejaVuSans-33" transform="translate(186.855469 39.046875) scale(0.7)"/>
      </g>
     </g>
    </g>
    <g id="ytick_2">
     <g id="line2d_7">
      <path d="M 179.045637 231.575114 
L 709.2 231.575114 
" clip-path="url(#pc1a8db943a)" style="fill: none; stroke: #b0b0b0; stroke-width: 0.8; stroke-linecap: square"/>
     </g>
     <g id="line2d_8">
      <g>
       <use xlink:href="#m72bafab393" x="179.045637" y="231.575114" style="stroke: #000000; stroke-width: 0.8"/>
      </g>
     </g>
     <g id="text_5">
      <!-- $\mathdefault{10^{-2}}$ -->
      <g transform="translate(87.445638 245.252302) scale(0.36 -0.36)">
       <defs>
        <path id="DejaVuSans-32" d="M 1228 531 
L 3431 531 
L 3431 0 
L 469 0 
L 469 531 
Q 828 903 1448 1529 
Q 2069 2156 2228 2338 
Q 2531 2678 2651 2914 
Q 2772 3150 2772 3378 
Q 2772 3750 2511 3984 
Q 2250 4219 1831 4219 
Q 1534 4219 1204 4116 
Q 875 4013 500 3803 
L 500 4441 
Q 881 4594 1212 4672 
Q 1544 4750 1819 4750 
Q 2544 4750 2975 4387 
Q 3406 4025 3406 3419 
Q 3406 3131 3298 2873 
Q 3191 2616 2906 2266 
Q 2828 2175 2409 1742 
Q 1991 1309 1228 531 
z
" transform="scale(0.015625)"/>
       </defs>
       <use xlink:href="#DejaVuSans-31" transform="translate(0 0.765625)"/>
       <use xlink:href="#DejaVuSans-30" transform="translate(63.623047 0.765625)"/>
       <use xlink:href="#DejaVuSans-2212" transform="translate(128.203125 39.046875) scale(0.7)"/>
       <use xlink:href="#DejaVuSans-32" transform="translate(186.855469 39.046875) scale(0.7)"/>
      </g>
     </g>
    </g>
    <g id="ytick_3">
     <g id="line2d_9">
      <path d="M 179.045637 140.496594 
L 709.2 140.496594 
" clip-path="url(#pc1a8db943a)" style="fill: none; stroke: #b0b0b0; stroke-width: 0.8; stroke-linecap: square"/>
     </g>
     <g id="line2d_10">
      <g>
       <use xlink:href="#m72bafab393" x="179.045637" y="140.496594" style="stroke: #000000; stroke-width: 0.8"/>
      </g>
     </g>
     <g id="text_6">
      <!-- $\mathdefault{10^{-1}}$ -->
      <g transform="translate(87.445638 154.173781) scale(0.36 -0.36)">
       <use xlink:href="#DejaVuSans-31" transform="translate(0 0.684375)"/>
       <use xlink:href="#DejaVuSans-30" transform="translate(63.623047 0.684375)"/>
       <use xlink:href="#DejaVuSans-2212" transform="translate(128.203125 38.965625) scale(0.7)"/>
       <use xlink:href="#DejaVuSans-31" transform="translate(186.855469 38.965625) scale(0.7)"/>
      </g>
     </g>
    </g>
    <g id="ytick_4">
     <g id="line2d_11">
      <path d="M 179.045637 49.418073 
L 709.2 49.418073 
" clip-path="url(#pc1a8db943a)" style="fill: none; stroke: #b0b0b0; stroke-width: 0.8; stroke-linecap: square"/>
     </g>
     <g id="line2d_12">
      <g>
       <use xlink:href="#m72bafab393" x="179.045637" y="49.418073" style="stroke: #000000; stroke-width: 0.8"/>
      </g>
     </g>
     <g id="text_7">
      <!-- $\mathdefault{10^{0}}$ -->
      <g transform="translate(108.685637 63.095261) scale(0.36 -0.36)">
       <use xlink:href="#DejaVuSans-31" transform="translate(0 0.765625)"/>
       <use xlink:href="#DejaVuSans-30" transform="translate(63.623047 0.765625)"/>
       <use xlink:href="#DejaVuSans-30" transform="translate(128.203125 39.046875) scale(0.7)"/>
      </g>
     </g>
    </g>
    <g id="ytick_5">
     <g id="line2d_13">
      <defs>
       <path id="m5201edb497" d="M 0 0 
L -2 0 
" style="stroke: #000000; stroke-width: 0.6"/>
      </defs>
      <g>
       <use xlink:href="#m5201edb497" x="179.045637" y="386.314788" style="stroke: #000000; stroke-width: 0.6"/>
      </g>
     </g>
    </g>
    <g id="ytick_6">
     <g id="line2d_14">
      <g>
       <use xlink:href="#m5201edb497" x="179.045637" y="370.276657" style="stroke: #000000; stroke-width: 0.6"/>
      </g>
     </g>
    </g>
    <g id="ytick_7">
     <g id="line2d_15">
      <g>
       <use xlink:href="#m5201edb497" x="179.045637" y="358.897422" style="stroke: #000000; stroke-width: 0.6"/>
      </g>
     </g>
    </g>
    <g id="ytick_8">
     <g id="line2d_16">
      <g>
       <use xlink:href="#m5201edb497" x="179.045637" y="350.071001" style="stroke: #000000; stroke-width: 0.6"/>
      </g>
     </g>
    </g>
    <g id="ytick_9">
     <g id="line2d_17">
      <g>
       <use xlink:href="#m5201edb497" x="179.045637" y="342.859291" style="stroke: #000000; stroke-width: 0.6"/>
      </g>
     </g>
    </g>
    <g id="ytick_10">
     <g id="line2d_18">
      <g>
       <use xlink:href="#m5201edb497" x="179.045637" y="336.761876" style="stroke: #000000; stroke-width: 0.6"/>
      </g>
     </g>
    </g>
    <g id="ytick_11">
     <g id="line2d_19">
      <g>
       <use xlink:href="#m5201edb497" x="179.045637" y="331.480055" style="stroke: #000000; stroke-width: 0.6"/>
      </g>
     </g>
    </g>
    <g id="ytick_12">
     <g id="line2d_20">
      <g>
       <use xlink:href="#m5201edb497" x="179.045637" y="326.821159" style="stroke: #000000; stroke-width: 0.6"/>
      </g>
     </g>
    </g>
    <g id="ytick_13">
     <g id="line2d_21">
      <g>
       <use xlink:href="#m5201edb497" x="179.045637" y="295.236268" style="stroke: #000000; stroke-width: 0.6"/>
      </g>
     </g>
    </g>
    <g id="ytick_14">
     <g id="line2d_22">
      <g>
       <use xlink:href="#m5201edb497" x="179.045637" y="279.198137" style="stroke: #000000; stroke-width: 0.6"/>
      </g>
     </g>
    </g>
    <g id="ytick_15">
     <g id="line2d_23">
      <g>
       <use xlink:href="#m5201edb497" x="179.045637" y="267.818901" style="stroke: #000000; stroke-width: 0.6"/>
      </g>
     </g>
    </g>
    <g id="ytick_16">
     <g id="line2d_24">
      <g>
       <use xlink:href="#m5201edb497" x="179.045637" y="258.992481" style="stroke: #000000; stroke-width: 0.6"/>
      </g>
     </g>
    </g>
    <g id="ytick_17">
     <g id="line2d_25">
      <g>
       <use xlink:href="#m5201edb497" x="179.045637" y="251.78077" style="stroke: #000000; stroke-width: 0.6"/>
      </g>
     </g>
    </g>
    <g id="ytick_18">
     <g id="line2d_26">
      <g>
       <use xlink:href="#m5201edb497" x="179.045637" y="245.683355" style="stroke: #000000; stroke-width: 0.6"/>
      </g>
     </g>
    </g>
    <g id="ytick_19">
     <g id="line2d_27">
      <g>
       <use xlink:href="#m5201edb497" x="179.045637" y="240.401535" style="stroke: #000000; stroke-width: 0.6"/>
      </g>
     </g>
    </g>
    <g id="ytick_20">
     <g id="line2d_28">
      <g>
       <use xlink:href="#m5201edb497" x="179.045637" y="235.742639" style="stroke: #000000; stroke-width: 0.6"/>
      </g>
     </g>
    </g>
    <g id="ytick_21">
     <g id="line2d_29">
      <g>
       <use xlink:href="#m5201edb497" x="179.045637" y="204.157748" style="stroke: #000000; stroke-width: 0.6"/>
      </g>
     </g>
    </g>
    <g id="ytick_22">
     <g id="line2d_30">
      <g>
       <use xlink:href="#m5201edb497" x="179.045637" y="188.119616" style="stroke: #000000; stroke-width: 0.6"/>
      </g>
     </g>
    </g>
    <g id="ytick_23">
     <g id="line2d_31">
      <g>
       <use xlink:href="#m5201edb497" x="179.045637" y="176.740381" style="stroke: #000000; stroke-width: 0.6"/>
      </g>
     </g>
    </g>
    <g id="ytick_24">
     <g id="line2d_32">
      <g>
       <use xlink:href="#m5201edb497" x="179.045637" y="167.91396" style="stroke: #000000; stroke-width: 0.6"/>
      </g>
     </g>
    </g>
    <g id="ytick_25">
     <g id="line2d_33">
      <g>
       <use xlink:href="#m5201edb497" x="179.045637" y="160.70225" style="stroke: #000000; stroke-width: 0.6"/>
      </g>
     </g>
    </g>
    <g id="ytick_26">
     <g id="line2d_34">
      <g>
       <use xlink:href="#m5201edb497" x="179.045637" y="154.604835" style="stroke: #000000; stroke-width: 0.6"/>
      </g>
     </g>
    </g>
    <g id="ytick_27">
     <g id="line2d_35">
      <g>
       <use xlink:href="#m5201edb497" x="179.045637" y="149.323014" style="stroke: #000000; stroke-width: 0.6"/>
      </g>
     </g>
    </g>
    <g id="ytick_28">
     <g id="line2d_36">
      <g>
       <use xlink:href="#m5201edb497" x="179.045637" y="144.664118" style="stroke: #000000; stroke-width: 0.6"/>
      </g>
     </g>
    </g>
    <g id="ytick_29">
     <g id="line2d_37">
      <g>
       <use xlink:href="#m5201edb497" x="179.045637" y="113.079227" style="stroke: #000000; stroke-width: 0.6"/>
      </g>
     </g>
    </g>
    <g id="ytick_30">
     <g id="line2d_38">
      <g>
       <use xlink:href="#m5201edb497" x="179.045637" y="97.041096" style="stroke: #000000; stroke-width: 0.6"/>
      </g>
     </g>
    </g>
    <g id="ytick_31">
     <g id="line2d_39">
      <g>
       <use xlink:href="#m5201edb497" x="179.045637" y="85.66186" style="stroke: #000000; stroke-width: 0.6"/>
      </g>
     </g>
    </g>
    <g id="ytick_32">
     <g id="line2d_40">
      <g>
       <use xlink:href="#m5201edb497" x="179.045637" y="76.83544" style="stroke: #000000; stroke-width: 0.6"/>
      </g>
     </g>
    </g>
    <g id="ytick_33">
     <g id="line2d_41">
      <g>
       <use xlink:href="#m5201edb497" x="179.045637" y="69.623729" style="stroke: #000000; stroke-width: 0.6"/>
      </g>
     </g>
    </g>
    <g id="ytick_34">
     <g id="line2d_42">
      <g>
       <use xlink:href="#m5201edb497" x="179.045637" y="63.526315" style="stroke: #000000; stroke-width: 0.6"/>
      </g>
     </g>
    </g>
    <g id="ytick_35">
     <g id="line2d_43">
      <g>
       <use xlink:href="#m5201edb497" x="179.045637" y="58.244494" style="stroke: #000000; stroke-width: 0.6"/>
      </g>
     </g>
    </g>
    <g id="ytick_36">
     <g id="line2d_44">
      <g>
       <use xlink:href="#m5201edb497" x="179.045637" y="53.585598" style="stroke: #000000; stroke-width: 0.6"/>
      </g>
     </g>
    </g>
    <g id="ytick_37">
     <g id="line2d_45">
      <g>
       <use xlink:href="#m5201edb497" x="179.045637" y="22.000707" style="stroke: #000000; stroke-width: 0.6"/>
      </g>
     </g>
    </g>
    <g id="text_8">
     <!-- Execution  -->
     <g transform="translate(35.646638 305.364375) rotate(-90) scale(0.36 -0.36)">
      <defs>
       <path id="DejaVuSans-45" d="M 628 4666 
L 3578 4666 
L 3578 4134 
L 1259 4134 
L 1259 2753 
L 3481 2753 
L 3481 2222 
L 1259 2222 
L 1259 531 
L 3634 531 
L 3634 0 
L 628 0 
L 628 4666 
z
" transform="scale(0.015625)"/>
       <path id="DejaVuSans-78" d="M 3513 3500 
L 2247 1797 
L 3578 0 
L 2900 0 
L 1881 1375 
L 863 0 
L 184 0 
L 1544 1831 
L 300 3500 
L 978 3500 
L 1906 2253 
L 2834 3500 
L 3513 3500 
z
" transform="scale(0.015625)"/>
       <path id="DejaVuSans-63" d="M 3122 3366 
L 3122 2828 
Q 2878 2963 2633 3030 
Q 2388 3097 2138 3097 
Q 1578 3097 1268 2742 
Q 959 2388 959 1747 
Q 959 1106 1268 751 
Q 1578 397 2138 397 
Q 2388 397 2633 464 
Q 2878 531 3122 666 
L 3122 134 
Q 2881 22 2623 -34 
Q 2366 -91 2075 -91 
Q 1284 -91 818 406 
Q 353 903 353 1747 
Q 353 2603 823 3093 
Q 1294 3584 2113 3584 
Q 2378 3584 2631 3529 
Q 2884 3475 3122 3366 
z
" transform="scale(0.015625)"/>
       <path id="DejaVuSans-69" d="M 603 3500 
L 1178 3500 
L 1178 0 
L 603 0 
L 603 3500 
z
M 603 4863 
L 1178 4863 
L 1178 4134 
L 603 4134 
L 603 4863 
z
" transform="scale(0.015625)"/>
       <path id="DejaVuSans-6f" d="M 1959 3097 
Q 1497 3097 1228 2736 
Q 959 2375 959 1747 
Q 959 1119 1226 758 
Q 1494 397 1959 397 
Q 2419 397 2687 759 
Q 2956 1122 2956 1747 
Q 2956 2369 2687 2733 
Q 2419 3097 1959 3097 
z
M 1959 3584 
Q 2709 3584 3137 3096 
Q 3566 2609 3566 1747 
Q 3566 888 3137 398 
Q 2709 -91 1959 -91 
Q 1206 -91 779 398 
Q 353 888 353 1747 
Q 353 2609 779 3096 
Q 1206 3584 1959 3584 
z
" transform="scale(0.015625)"/>
       <path id="DejaVuSans-6e" d="M 3513 2113 
L 3513 0 
L 2938 0 
L 2938 2094 
Q 2938 2591 2744 2837 
Q 2550 3084 2163 3084 
Q 1697 3084 1428 2787 
Q 1159 2491 1159 1978 
L 1159 0 
L 581 0 
L 581 3500 
L 1159 3500 
L 1159 2956 
Q 1366 3272 1645 3428 
Q 1925 3584 2291 3584 
Q 2894 3584 3203 3211 
Q 3513 2838 3513 2113 
z
" transform="scale(0.015625)"/>
       <path id="DejaVuSans-20" transform="scale(0.015625)"/>
      </defs>
      <use xlink:href="#DejaVuSans-45"/>
      <use xlink:href="#DejaVuSans-78" x="63.183594"/>
      <use xlink:href="#DejaVuSans-65" x="119.238281"/>
      <use xlink:href="#DejaVuSans-63" x="180.761719"/>
      <use xlink:href="#DejaVuSans-75" x="235.742188"/>
      <use xlink:href="#DejaVuSans-74" x="299.121094"/>
      <use xlink:href="#DejaVuSans-69" x="338.330078"/>
      <use xlink:href="#DejaVuSans-6f" x="366.113281"/>
      <use xlink:href="#DejaVuSans-6e" x="427.294922"/>
      <use xlink:href="#DejaVuSans-20" x="490.673828"/>
     </g>
     <!-- Time (s) -->
     <g transform="translate(75.958763 284.504062) rotate(-90) scale(0.36 -0.36)">
      <defs>
       <path id="DejaVuSans-54" d="M -19 4666 
L 3928 4666 
L 3928 4134 
L 2272 4134 
L 2272 0 
L 1638 0 
L 1638 4134 
L -19 4134 
L -19 4666 
z
" transform="scale(0.015625)"/>
       <path id="DejaVuSans-6d" d="M 3328 2828 
Q 3544 3216 3844 3400 
Q 4144 3584 4550 3584 
Q 5097 3584 5394 3201 
Q 5691 2819 5691 2113 
L 5691 0 
L 5113 0 
L 5113 2094 
Q 5113 2597 4934 2840 
Q 4756 3084 4391 3084 
Q 3944 3084 3684 2787 
Q 3425 2491 3425 1978 
L 3425 0 
L 2847 0 
L 2847 2094 
Q 2847 2600 2669 2842 
Q 2491 3084 2119 3084 
Q 1678 3084 1418 2786 
Q 1159 2488 1159 1978 
L 1159 0 
L 581 0 
L 581 3500 
L 1159 3500 
L 1159 2956 
Q 1356 3278 1631 3431 
Q 1906 3584 2284 3584 
Q 2666 3584 2933 3390 
Q 3200 3197 3328 2828 
z
" transform="scale(0.015625)"/>
       <path id="DejaVuSans-28" d="M 1984 4856 
Q 1566 4138 1362 3434 
Q 1159 2731 1159 2009 
Q 1159 1288 1364 580 
Q 1569 -128 1984 -844 
L 1484 -844 
Q 1016 -109 783 600 
Q 550 1309 550 2009 
Q 550 2706 781 3412 
Q 1013 4119 1484 4856 
L 1984 4856 
z
" transform="scale(0.015625)"/>
       <path id="DejaVuSans-29" d="M 513 4856 
L 1013 4856 
Q 1481 4119 1714 3412 
Q 1947 2706 1947 2009 
Q 1947 1309 1714 600 
Q 1481 -109 1013 -844 
L 513 -844 
Q 928 -128 1133 580 
Q 1338 1288 1338 2009 
Q 1338 2731 1133 3434 
Q 928 4138 513 4856 
z
" transform="scale(0.015625)"/>
      </defs>
      <use xlink:href="#DejaVuSans-54"/>
      <use xlink:href="#DejaVuSans-69" x="57.958984"/>
      <use xlink:href="#DejaVuSans-6d" x="85.742188"/>
      <use xlink:href="#DejaVuSans-65" x="183.154297"/>
      <use xlink:href="#DejaVuSans-20" x="244.677734"/>
      <use xlink:href="#DejaVuSans-28" x="276.464844"/>
      <use xlink:href="#DejaVuSans-73" x="315.478516"/>
      <use xlink:href="#DejaVuSans-29" x="367.578125"/>
     </g>
    </g>
   </g>
   <g id="LineCollection_1">
    <path d="M 203.143563 91.017265 
L 203.143563 84.399532 
" clip-path="url(#pc1a8db943a)" style="fill: none; stroke: #0000ff; stroke-width: 1.5"/>
    <path d="M 355.638248 76.290923 
L 355.638248 64.577993 
" clip-path="url(#pc1a8db943a)" style="fill: none; stroke: #0000ff; stroke-width: 1.5"/>
    <path d="M 444.593481 68.786203 
L 444.593481 55.44601 
" clip-path="url(#pc1a8db943a)" style="fill: none; stroke: #0000ff; stroke-width: 1.5"/>
    <path d="M 542.020641 61.391655 
L 542.020641 50.588544 
" clip-path="url(#pc1a8db943a)" style="fill: none; stroke: #0000ff; stroke-width: 1.5"/>
    <path d="M 611.678707 70.663205 
L 611.678707 29.029091 
" clip-path="url(#pc1a8db943a)" style="fill: none; stroke: #0000ff; stroke-width: 1.5"/>
    <path d="M 685.102074 54.168119 
L 685.102074 37.392017 
" clip-path="url(#pc1a8db943a)" style="fill: none; stroke: #0000ff; stroke-width: 1.5"/>
   </g>
   <g id="line2d_46">
    <defs>
     <path id="m7fd1dbae9a" d="M 5 0 
L -5 -0 
" style="stroke: #0000ff"/>
    </defs>
    <g clip-path="url(#pc1a8db943a)">
     <use xlink:href="#m7fd1dbae9a" x="203.143563" y="91.017265" style="fill: #0000ff; stroke: #0000ff"/>
     <use xlink:href="#m7fd1dbae9a" x="355.638248" y="76.290923" style="fill: #0000ff; stroke: #0000ff"/>
     <use xlink:href="#m7fd1dbae9a" x="444.593481" y="68.786203" style="fill: #0000ff; stroke: #0000ff"/>
     <use xlink:href="#m7fd1dbae9a" x="542.020641" y="61.391655" style="fill: #0000ff; stroke: #0000ff"/>
     <use xlink:href="#m7fd1dbae9a" x="611.678707" y="70.663205" style="fill: #0000ff; stroke: #0000ff"/>
     <use xlink:href="#m7fd1dbae9a" x="685.102074" y="54.168119" style="fill: #0000ff; stroke: #0000ff"/>
    </g>
   </g>
   <g id="line2d_47">
    <g clip-path="url(#pc1a8db943a)">
     <use xlink:href="#m7fd1dbae9a" x="203.143563" y="84.399532" style="fill: #0000ff; stroke: #0000ff"/>
     <use xlink:href="#m7fd1dbae9a" x="355.638248" y="64.577993" style="fill: #0000ff; stroke: #0000ff"/>
     <use xlink:href="#m7fd1dbae9a" x="444.593481" y="55.44601" style="fill: #0000ff; stroke: #0000ff"/>
     <use xlink:href="#m7fd1dbae9a" x="542.020641" y="50.588544" style="fill: #0000ff; stroke: #0000ff"/>
     <use xlink:href="#m7fd1dbae9a" x="611.678707" y="29.029091" style="fill: #0000ff; stroke: #0000ff"/>
     <use xlink:href="#m7fd1dbae9a" x="685.102074" y="37.392017" style="fill: #0000ff; stroke: #0000ff"/>
    </g>
   </g>
   <g id="LineCollection_2">
    <path d="M 203.143563 370.332185 
L 203.143563 362.370761 
" clip-path="url(#pc1a8db943a)" style="fill: none; stroke: #ffa500; stroke-width: 1.5"/>
    <path d="M 355.638248 380.929877 
L 355.638248 339.957065 
" clip-path="url(#pc1a8db943a)" style="fill: none; stroke: #ffa500; stroke-width: 1.5"/>
    <path d="M 444.593481 367.594492 
L 444.593481 356.870683 
" clip-path="url(#pc1a8db943a)" style="fill: none; stroke: #ffa500; stroke-width: 1.5"/>
    <path d="M 542.020641 368.795201 
L 542.020641 343.472588 
" clip-path="url(#pc1a8db943a)" style="fill: none; stroke: #ffa500; stroke-width: 1.5"/>
    <path d="M 611.678707 365.331686 
L 611.678707 354.499037 
" clip-path="url(#pc1a8db943a)" style="fill: none; stroke: #ffa500; stroke-width: 1.5"/>
    <path d="M 685.102074 393.610909 
L 685.102074 334.587939 
" clip-path="url(#pc1a8db943a)" style="fill: none; stroke: #ffa500; stroke-width: 1.5"/>
   </g>
   <g id="line2d_48">
    <defs>
     <path id="m3f74aab8c7" d="M 5 0 
L -5 -0 
" style="stroke: #ffa500"/>
    </defs>
    <g clip-path="url(#pc1a8db943a)">
     <use xlink:href="#m3f74aab8c7" x="203.143563" y="370.332185" style="fill: #ffa500; stroke: #ffa500"/>
     <use xlink:href="#m3f74aab8c7" x="355.638248" y="380.929877" style="fill: #ffa500; stroke: #ffa500"/>
     <use xlink:href="#m3f74aab8c7" x="444.593481" y="367.594492" style="fill: #ffa500; stroke: #ffa500"/>
     <use xlink:href="#m3f74aab8c7" x="542.020641" y="368.795201" style="fill: #ffa500; stroke: #ffa500"/>
     <use xlink:href="#m3f74aab8c7" x="611.678707" y="365.331686" style="fill: #ffa500; stroke: #ffa500"/>
     <use xlink:href="#m3f74aab8c7" x="685.102074" y="393.610909" style="fill: #ffa500; stroke: #ffa500"/>
    </g>
   </g>
   <g id="line2d_49">
    <g clip-path="url(#pc1a8db943a)">
     <use xlink:href="#m3f74aab8c7" x="203.143563" y="362.370761" style="fill: #ffa500; stroke: #ffa500"/>
     <use xlink:href="#m3f74aab8c7" x="355.638248" y="339.957065" style="fill: #ffa500; stroke: #ffa500"/>
     <use xlink:href="#m3f74aab8c7" x="444.593481" y="356.870683" style="fill: #ffa500; stroke: #ffa500"/>
     <use xlink:href="#m3f74aab8c7" x="542.020641" y="343.472588" style="fill: #ffa500; stroke: #ffa500"/>
     <use xlink:href="#m3f74aab8c7" x="611.678707" y="354.499037" style="fill: #ffa500; stroke: #ffa500"/>
     <use xlink:href="#m3f74aab8c7" x="685.102074" y="334.587939" style="fill: #ffa500; stroke: #ffa500"/>
    </g>
   </g>
   <g id="LineCollection_3">
    <path d="M 203.143563 261.678108 
L 203.143563 260.355057 
" clip-path="url(#pc1a8db943a)" style="fill: none; stroke: #ff0000; stroke-width: 1.5"/>
    <path d="M 355.638248 246.559584 
L 355.638248 240.044225 
" clip-path="url(#pc1a8db943a)" style="fill: none; stroke: #ff0000; stroke-width: 1.5"/>
    <path d="M 444.593481 237.912665 
L 444.593481 234.203235 
" clip-path="url(#pc1a8db943a)" style="fill: none; stroke: #ff0000; stroke-width: 1.5"/>
    <path d="M 542.020641 230.331035 
L 542.020641 229.645446 
" clip-path="url(#pc1a8db943a)" style="fill: none; stroke: #ff0000; stroke-width: 1.5"/>
    <path d="M 611.678707 230.253715 
L 611.678707 216.35638 
" clip-path="url(#pc1a8db943a)" style="fill: none; stroke: #ff0000; stroke-width: 1.5"/>
    <path d="M 685.102074 223.460028 
L 685.102074 219.319257 
" clip-path="url(#pc1a8db943a)" style="fill: none; stroke: #ff0000; stroke-width: 1.5"/>
   </g>
   <g id="line2d_50">
    <defs>
     <path id="m6a103b4556" d="M 5 0 
L -5 -0 
" style="stroke: #ff0000"/>
    </defs>
    <g clip-path="url(#pc1a8db943a)">
     <use xlink:href="#m6a103b4556" x="203.143563" y="261.678108" style="fill: #ff0000; stroke: #ff0000"/>
     <use xlink:href="#m6a103b4556" x="355.638248" y="246.559584" style="fill: #ff0000; stroke: #ff0000"/>
     <use xlink:href="#m6a103b4556" x="444.593481" y="237.912665" style="fill: #ff0000; stroke: #ff0000"/>
     <use xlink:href="#m6a103b4556" x="542.020641" y="230.331035" style="fill: #ff0000; stroke: #ff0000"/>
     <use xlink:href="#m6a103b4556" x="611.678707" y="230.253715" style="fill: #ff0000; stroke: #ff0000"/>
     <use xlink:href="#m6a103b4556" x="685.102074" y="223.460028" style="fill: #ff0000; stroke: #ff0000"/>
    </g>
   </g>
   <g id="line2d_51">
    <g clip-path="url(#pc1a8db943a)">
     <use xlink:href="#m6a103b4556" x="203.143563" y="260.355057" style="fill: #ff0000; stroke: #ff0000"/>
     <use xlink:href="#m6a103b4556" x="355.638248" y="240.044225" style="fill: #ff0000; stroke: #ff0000"/>
     <use xlink:href="#m6a103b4556" x="444.593481" y="234.203235" style="fill: #ff0000; stroke: #ff0000"/>
     <use xlink:href="#m6a103b4556" x="542.020641" y="229.645446" style="fill: #ff0000; stroke: #ff0000"/>
     <use xlink:href="#m6a103b4556" x="611.678707" y="216.35638" style="fill: #ff0000; stroke: #ff0000"/>
     <use xlink:href="#m6a103b4556" x="685.102074" y="219.319257" style="fill: #ff0000; stroke: #ff0000"/>
    </g>
   </g>
   <g id="line2d_52">
    <path d="M 203.143563 87.570162 
L 355.638248 70.002481 
L 444.593481 61.556366 
L 542.020641 55.622426 
L 611.678707 44.603953 
L 685.102074 44.897266 
" clip-path="url(#pc1a8db943a)" style="fill: none; stroke: #0000ff; stroke-width: 1.5; stroke-linecap: square"/>
    <defs>
     <path id="m75ea8e3685" d="M 0 3 
C 0.795609 3 1.55874 2.683901 2.12132 2.12132 
C 2.683901 1.55874 3 0.795609 3 0 
C 3 -0.795609 2.683901 -1.55874 2.12132 -2.12132 
C 1.55874 -2.683901 0.795609 -3 0 -3 
C -0.795609 -3 -1.55874 -2.683901 -2.12132 -2.12132 
C -2.683901 -1.55874 -3 -0.795609 -3 0 
C -3 0.795609 -2.683901 1.55874 -2.12132 2.12132 
C -1.55874 2.683901 -0.795609 3 0 3 
z
" style="stroke: #0000ff"/>
    </defs>
    <g clip-path="url(#pc1a8db943a)">
     <use xlink:href="#m75ea8e3685" x="203.143563" y="87.570162" style="fill: #0000ff; stroke: #0000ff"/>
     <use xlink:href="#m75ea8e3685" x="355.638248" y="70.002481" style="fill: #0000ff; stroke: #0000ff"/>
     <use xlink:href="#m75ea8e3685" x="444.593481" y="61.556366" style="fill: #0000ff; stroke: #0000ff"/>
     <use xlink:href="#m75ea8e3685" x="542.020641" y="55.622426" style="fill: #0000ff; stroke: #0000ff"/>
     <use xlink:href="#m75ea8e3685" x="611.678707" y="44.603953" style="fill: #0000ff; stroke: #0000ff"/>
     <use xlink:href="#m75ea8e3685" x="685.102074" y="44.897266" style="fill: #0000ff; stroke: #0000ff"/>
    </g>
   </g>
   <g id="line2d_53">
    <path d="M 203.143563 366.151505 
L 355.638248 355.359764 
L 444.593481 361.870276 
L 542.020641 354.141175 
L 611.678707 359.545681 
L 685.102074 353.981805 
" clip-path="url(#pc1a8db943a)" style="fill: none; stroke: #ffa500; stroke-width: 1.5; stroke-linecap: square"/>
    <defs>
     <path id="m26c1867316" d="M 0 3 
C 0.795609 3 1.55874 2.683901 2.12132 2.12132 
C 2.683901 1.55874 3 0.795609 3 0 
C 3 -0.795609 2.683901 -1.55874 2.12132 -2.12132 
C 1.55874 -2.683901 0.795609 -3 0 -3 
C -0.795609 -3 -1.55874 -2.683901 -2.12132 -2.12132 
C -2.683901 -1.55874 -3 -0.795609 -3 0 
C -3 0.795609 -2.683901 1.55874 -2.12132 2.12132 
C -1.55874 2.683901 -0.795609 3 0 3 
z
" style="stroke: #ffa500"/>
    </defs>
    <g clip-path="url(#pc1a8db943a)">
     <use xlink:href="#m26c1867316" x="203.143563" y="366.151505" style="fill: #ffa500; stroke: #ffa500"/>
     <use xlink:href="#m26c1867316" x="355.638248" y="355.359764" style="fill: #ffa500; stroke: #ffa500"/>
     <use xlink:href="#m26c1867316" x="444.593481" y="361.870276" style="fill: #ffa500; stroke: #ffa500"/>
     <use xlink:href="#m26c1867316" x="542.020641" y="354.141175" style="fill: #ffa500; stroke: #ffa500"/>
     <use xlink:href="#m26c1867316" x="611.678707" y="359.545681" style="fill: #ffa500; stroke: #ffa500"/>
     <use xlink:href="#m26c1867316" x="685.102074" y="353.981805" style="fill: #ffa500; stroke: #ffa500"/>
    </g>
   </g>
   <g id="line2d_54">
    <path d="M 203.143563 261.011051 
L 355.638248 243.167907 
L 444.593481 236.014483 
L 542.020641 229.986755 
L 611.678707 222.69782 
L 685.102074 221.335483 
" clip-path="url(#pc1a8db943a)" style="fill: none; stroke: #ff0000; stroke-width: 1.5; stroke-linecap: square"/>
    <defs>
     <path id="m56aed9abb9" d="M 0 3 
C 0.795609 3 1.55874 2.683901 2.12132 2.12132 
C 2.683901 1.55874 3 0.795609 3 0 
C 3 -0.795609 2.683901 -1.55874 2.12132 -2.12132 
C 1.55874 -2.683901 0.795609 -3 0 -3 
C -0.795609 -3 -1.55874 -2.683901 -2.12132 -2.12132 
C -2.683901 -1.55874 -3 -0.795609 -3 0 
C -3 0.795609 -2.683901 1.55874 -2.12132 2.12132 
C -1.55874 2.683901 -0.795609 3 0 3 
z
" style="stroke: #ff0000"/>
    </defs>
    <g clip-path="url(#pc1a8db943a)">
     <use xlink:href="#m56aed9abb9" x="203.143563" y="261.011051" style="fill: #ff0000; stroke: #ff0000"/>
     <use xlink:href="#m56aed9abb9" x="355.638248" y="243.167907" style="fill: #ff0000; stroke: #ff0000"/>
     <use xlink:href="#m56aed9abb9" x="444.593481" y="236.014483" style="fill: #ff0000; stroke: #ff0000"/>
     <use xlink:href="#m56aed9abb9" x="542.020641" y="229.986755" style="fill: #ff0000; stroke: #ff0000"/>
     <use xlink:href="#m56aed9abb9" x="611.678707" y="222.69782" style="fill: #ff0000; stroke: #ff0000"/>
     <use xlink:href="#m56aed9abb9" x="685.102074" y="221.335483" style="fill: #ff0000; stroke: #ff0000"/>
    </g>
   </g>
   <g id="patch_3">
    <path d="M 179.045637 411.84 
L 179.045637 10.8 
" style="fill: none; stroke: #000000; stroke-width: 0.8; stroke-linejoin: miter; stroke-linecap: square"/>
   </g>
   <g id="patch_4">
    <path d="M 709.2 411.84 
L 709.2 10.8 
" style="fill: none; stroke: #000000; stroke-width: 0.8; stroke-linejoin: miter; stroke-linecap: square"/>
   </g>
   <g id="patch_5">
    <path d="M 179.045637 411.84 
L 709.2 411.84 
" style="fill: none; stroke: #000000; stroke-width: 0.8; stroke-linejoin: miter; stroke-linecap: square"/>
   </g>
   <g id="patch_6">
    <path d="M 179.045637 10.8 
L 709.2 10.8 
" style="fill: none; stroke: #000000; stroke-width: 0.8; stroke-linejoin: miter; stroke-linecap: square"/>
   </g>
   <g id="legend_1">
    <g id="patch_7">
     <path d="M 210.218444 679.37175 
L 678.027194 679.37175 
Q 685.227194 679.37175 685.227194 672.17175 
L 685.227194 517.248 
Q 685.227194 510.048 678.027194 510.048 
L 210.218444 510.048 
Q 203.018444 510.048 203.018444 517.248 
L 203.018444 672.17175 
Q 203.018444 679.37175 210.218444 679.37175 
z
" style="fill: #ffffff; opacity: 0.8; stroke: #cccccc; stroke-linejoin: miter"/>
    </g>
    <g id="LineCollection_4">
     <path d="M 253.418444 557.202375 
L 253.418444 521.202375 
" style="fill: none; stroke: #0000ff; stroke-width: 1.5"/>
    </g>
    <g id="line2d_55">
     <g>
      <use xlink:href="#m7fd1dbae9a" x="253.418444" y="557.202375" style="fill: #0000ff; stroke: #0000ff"/>
     </g>
    </g>
    <g id="line2d_56">
     <g>
      <use xlink:href="#m7fd1dbae9a" x="253.418444" y="521.202375" style="fill: #0000ff; stroke: #0000ff"/>
     </g>
    </g>
    <g id="line2d_57">
     <path d="M 217.418444 539.202375 
L 289.418444 539.202375 
" style="fill: none; stroke: #0000ff; stroke-width: 1.5; stroke-linecap: square"/>
    </g>
    <g id="line2d_58">
     <g>
      <use xlink:href="#m75ea8e3685" x="253.418444" y="539.202375" style="fill: #0000ff; stroke: #0000ff"/>
     </g>
    </g>
    <g id="text_9">
     <!-- CPU multi-threaded -->
     <g transform="translate(318.218444 551.802375) scale(0.36 -0.36)">
      <defs>
       <path id="DejaVuSans-43" d="M 4122 4306 
L 4122 3641 
Q 3803 3938 3442 4084 
Q 3081 4231 2675 4231 
Q 1875 4231 1450 3742 
Q 1025 3253 1025 2328 
Q 1025 1406 1450 917 
Q 1875 428 2675 428 
Q 3081 428 3442 575 
Q 3803 722 4122 1019 
L 4122 359 
Q 3791 134 3420 21 
Q 3050 -91 2638 -91 
Q 1578 -91 968 557 
Q 359 1206 359 2328 
Q 359 3453 968 4101 
Q 1578 4750 2638 4750 
Q 3056 4750 3426 4639 
Q 3797 4528 4122 4306 
z
" transform="scale(0.015625)"/>
       <path id="DejaVuSans-50" d="M 1259 4147 
L 1259 2394 
L 2053 2394 
Q 2494 2394 2734 2622 
Q 2975 2850 2975 3272 
Q 2975 3691 2734 3919 
Q 2494 4147 2053 4147 
L 1259 4147 
z
M 628 4666 
L 2053 4666 
Q 2838 4666 3239 4311 
Q 3641 3956 3641 3272 
Q 3641 2581 3239 2228 
Q 2838 1875 2053 1875 
L 1259 1875 
L 1259 0 
L 628 0 
L 628 4666 
z
" transform="scale(0.015625)"/>
       <path id="DejaVuSans-55" d="M 556 4666 
L 1191 4666 
L 1191 1831 
Q 1191 1081 1462 751 
Q 1734 422 2344 422 
Q 2950 422 3222 751 
Q 3494 1081 3494 1831 
L 3494 4666 
L 4128 4666 
L 4128 1753 
Q 4128 841 3676 375 
Q 3225 -91 2344 -91 
Q 1459 -91 1007 375 
Q 556 841 556 1753 
L 556 4666 
z
" transform="scale(0.015625)"/>
       <path id="DejaVuSans-6c" d="M 603 4863 
L 1178 4863 
L 1178 0 
L 603 0 
L 603 4863 
z
" transform="scale(0.015625)"/>
       <path id="DejaVuSans-2d" d="M 313 2009 
L 1997 2009 
L 1997 1497 
L 313 1497 
L 313 2009 
z
" transform="scale(0.015625)"/>
       <path id="DejaVuSans-68" d="M 3513 2113 
L 3513 0 
L 2938 0 
L 2938 2094 
Q 2938 2591 2744 2837 
Q 2550 3084 2163 3084 
Q 1697 3084 1428 2787 
Q 1159 2491 1159 1978 
L 1159 0 
L 581 0 
L 581 4863 
L 1159 4863 
L 1159 2956 
Q 1366 3272 1645 3428 
Q 1925 3584 2291 3584 
Q 2894 3584 3203 3211 
Q 3513 2838 3513 2113 
z
" transform="scale(0.015625)"/>
      </defs>
      <use xlink:href="#DejaVuSans-43"/>
      <use xlink:href="#DejaVuSans-50" x="69.824219"/>
      <use xlink:href="#DejaVuSans-55" x="130.126953"/>
      <use xlink:href="#DejaVuSans-20" x="203.320312"/>
      <use xlink:href="#DejaVuSans-6d" x="235.107422"/>
      <use xlink:href="#DejaVuSans-75" x="332.519531"/>
      <use xlink:href="#DejaVuSans-6c" x="395.898438"/>
      <use xlink:href="#DejaVuSans-74" x="423.681641"/>
      <use xlink:href="#DejaVuSans-69" x="462.890625"/>
      <use xlink:href="#DejaVuSans-2d" x="490.673828"/>
      <use xlink:href="#DejaVuSans-74" x="526.757812"/>
      <use xlink:href="#DejaVuSans-68" x="565.966797"/>
      <use xlink:href="#DejaVuSans-72" x="629.345703"/>
      <use xlink:href="#DejaVuSans-65" x="668.208984"/>
      <use xlink:href="#DejaVuSans-61" x="729.732422"/>
      <use xlink:href="#DejaVuSans-64" x="791.011719"/>
      <use xlink:href="#DejaVuSans-65" x="854.488281"/>
      <use xlink:href="#DejaVuSans-64" x="916.011719"/>
     </g>
    </g>
    <g id="LineCollection_5">
     <path d="M 253.418444 610.043625 
L 253.418444 574.043625 
" style="fill: none; stroke: #ffa500; stroke-width: 1.5"/>
    </g>
    <g id="line2d_59">
     <g>
      <use xlink:href="#m3f74aab8c7" x="253.418444" y="610.043625" style="fill: #ffa500; stroke: #ffa500"/>
     </g>
    </g>
    <g id="line2d_60">
     <g>
      <use xlink:href="#m3f74aab8c7" x="253.418444" y="574.043625" style="fill: #ffa500; stroke: #ffa500"/>
     </g>
    </g>
    <g id="line2d_61">
     <path d="M 217.418444 592.043625 
L 289.418444 592.043625 
" style="fill: none; stroke: #ffa500; stroke-width: 1.5; stroke-linecap: square"/>
    </g>
    <g id="line2d_62">
     <g>
      <use xlink:href="#m26c1867316" x="253.418444" y="592.043625" style="fill: #ffa500; stroke: #ffa500"/>
     </g>
    </g>
    <g id="text_10">
     <!-- overhead -->
     <g transform="translate(318.218444 604.643625) scale(0.36 -0.36)">
      <defs>
       <path id="DejaVuSans-76" d="M 191 3500 
L 800 3500 
L 1894 563 
L 2988 3500 
L 3597 3500 
L 2284 0 
L 1503 0 
L 191 3500 
z
" transform="scale(0.015625)"/>
      </defs>
      <use xlink:href="#DejaVuSans-6f"/>
      <use xlink:href="#DejaVuSans-76" x="61.181641"/>
      <use xlink:href="#DejaVuSans-65" x="120.361328"/>
      <use xlink:href="#DejaVuSans-72" x="181.884766"/>
      <use xlink:href="#DejaVuSans-68" x="221.248047"/>
      <use xlink:href="#DejaVuSans-65" x="284.626953"/>
      <use xlink:href="#DejaVuSans-61" x="346.150391"/>
      <use xlink:href="#DejaVuSans-64" x="407.429688"/>
     </g>
    </g>
    <g id="LineCollection_6">
     <path d="M 253.418444 662.884875 
L 253.418444 626.884875 
" style="fill: none; stroke: #ff0000; stroke-width: 1.5"/>
    </g>
    <g id="line2d_63">
     <g>
      <use xlink:href="#m6a103b4556" x="253.418444" y="662.884875" style="fill: #ff0000; stroke: #ff0000"/>
     </g>
    </g>
    <g id="line2d_64">
     <g>
      <use xlink:href="#m6a103b4556" x="253.418444" y="626.884875" style="fill: #ff0000; stroke: #ff0000"/>
     </g>
    </g>
    <g id="line2d_65">
     <path d="M 217.418444 644.884875 
L 289.418444 644.884875 
" style="fill: none; stroke: #ff0000; stroke-width: 1.5; stroke-linecap: square"/>
    </g>
    <g id="line2d_66">
     <g>
      <use xlink:href="#m56aed9abb9" x="253.418444" y="644.884875" style="fill: #ff0000; stroke: #ff0000"/>
     </g>
    </g>
    <g id="text_11">
     <!-- calculation -->
     <g transform="translate(318.218444 657.484875) scale(0.36 -0.36)">
      <use xlink:href="#DejaVuSans-63"/>
      <use xlink:href="#DejaVuSans-61" x="54.980469"/>
      <use xlink:href="#DejaVuSans-6c" x="116.259766"/>
      <use xlink:href="#DejaVuSans-63" x="144.042969"/>
      <use xlink:href="#DejaVuSans-75" x="199.023438"/>
      <use xlink:href="#DejaVuSans-6c" x="262.402344"/>
      <use xlink:href="#DejaVuSans-61" x="290.185547"/>
      <use xlink:href="#DejaVuSans-74" x="351.464844"/>
      <use xlink:href="#DejaVuSans-69" x="390.673828"/>
      <use xlink:href="#DejaVuSans-6f" x="418.457031"/>
      <use xlink:href="#DejaVuSans-6e" x="479.638672"/>
     </g>
    </g>
   </g>
  </g>
 </g>
 <defs>
  <clipPath id="pc1a8db943a">
   <rect x="179.045637" y="10.8" width="530.154363" height="401.04"/>
  </clipPath>
 </defs>
</svg>
